<?xml version="1.0" standalone="no"?>
<!DOCTYPE svg PUBLIC "-//W3C//DTD SVG 20010904//EN"
 "http://www.w3.org/TR/2001/REC-SVG-20010904/DTD/svg10.dtd">
<svg version="1.0" xmlns="http://www.w3.org/2000/svg"
 width="1024.000000pt" height="1024.000000pt" viewBox="0 0 1024.000000 1024.000000"
 preserveAspectRatio="xMidYMid meet">

<g transform="translate(0.000000,1024.000000) scale(0.100000,-0.100000)"
fill="#000000" stroke="none">
<path d="M4835 9297 c-18 -18 -38 -50 -43 -70 -24 -86 50 -207 126 -207 l37 0
2 -413 c2 -226 -1 -450 -5 -497 l-7 -85 -61 -3 -62 -3 -7 56 c-5 43 -1 436 9
820 1 27 -2 30 -33 33 -18 2 -38 -1 -43 -6 -5 -5 -10 -194 -12 -456 -1 -245
-6 -449 -10 -453 -4 -4 -39 -9 -78 -11 -52 -3 -73 -1 -79 9 -5 8 -8 235 -8
506 0 271 -2 497 -6 503 -3 5 -17 10 -30 10 -19 0 -25 -6 -29 -32 -10 -67 -16
-283 -16 -643 l0 -370 -61 -24 c-33 -13 -63 -30 -66 -39 -9 -23 32 -87 54 -85
10 0 52 8 95 17 207 42 613 48 843 11 40 -6 40 -6 68 46 16 28 27 53 25 54 -2
2 -28 10 -58 17 l-55 14 -3 485 -2 485 32 15 c71 32 96 119 60 203 -25 55 -72
81 -135 73 -122 -16 -169 -169 -79 -256 l37 -36 -3 -475 -4 -475 -24 1 c-13 0
-55 1 -93 2 l-69 2 -4 458 c-4 409 -6 462 -22 505 l-18 48 27 27 c34 34 45 62
45 115 -1 88 -70 157 -158 157 -36 0 -50 -6 -77 -33z m119 -73 c16 -16 21 -50
10 -78 -9 -24 -60 -20 -78 6 -21 30 -20 44 4 68 24 24 43 25 64 4z m380 -96
c8 -22 6 -32 -9 -48 -44 -48 -107 0 -71 55 23 35 67 31 80 -7z"/>
<path d="M3938 9137 c-34 -27 -58 -84 -58 -133 0 -44 41 -120 71 -129 20 -7
20 -11 17 -459 l-3 -452 42 74 42 73 4 369 5 369 46 52 c41 46 46 56 46 100 0
95 -57 159 -141 159 -31 0 -52 -7 -71 -23z m106 -83 c19 -18 21 -65 4 -82 -7
-7 -21 -12 -33 -12 -47 0 -63 66 -23 94 28 20 33 20 52 0z"/>
<path d="M5673 9095 c-46 -20 -73 -69 -73 -133 0 -63 17 -100 64 -139 l35 -28
12 -325 12 -325 36 -55 36 -55 3 135 c2 74 -2 249 -7 388 l-11 254 39 36 c84
79 83 170 -4 244 -25 21 -97 23 -142 3z m107 -96 c25 -45 -5 -87 -53 -75 -33
8 -43 40 -23 71 20 31 61 33 76 4z"/>
<path d="M6122 9004 c-40 -28 -65 -91 -58 -147 6 -59 26 -91 69 -117 l31 -19
-2 -306 c-2 -191 -7 -311 -13 -318 -6 -7 -20 -27 -32 -46 -50 -78 -98 -141
-107 -141 -4 0 -10 98 -13 218 -7 216 -14 273 -33 279 -27 9 -37 -56 -41 -267
-2 -118 -6 -230 -9 -248 -5 -33 -7 -34 -40 -28 l-34 7 6 -48 c9 -78 14 -93 30
-93 53 0 426 -193 564 -293 174 -125 269 -210 426 -379 228 -246 405 -541 518
-863 90 -257 127 -444 147 -730 24 -351 -28 -696 -160 -1051 -132 -361 -449
-787 -786 -1060 -127 -103 -131 -106 -246 -180 -225 -143 -538 -271 -790 -322
-247 -51 -307 -57 -574 -57 -224 1 -267 4 -415 28 -269 45 -485 112 -705 220
-287 141 -474 268 -694 472 -50 46 -204 220 -278 315 -237 303 -425 765 -475
1166 -15 123 -15 495 1 629 17 145 77 403 123 530 160 437 329 706 638 1015
226 226 453 384 690 481 l65 27 3 66 3 67 -28 -7 c-15 -3 -48 -15 -72 -25 -24
-11 -45 -19 -46 -19 -1 0 -4 204 -7 452 l-5 453 24 45 c19 34 23 55 20 88 -10
89 -88 160 -162 146 -40 -7 -104 -73 -106 -108 -8 -101 32 -171 102 -182 l37
-6 7 -94 c4 -51 5 -261 2 -465 l-6 -373 -40 -19 -40 -19 -43 47 c-24 26 -61
66 -83 88 -55 58 -65 81 -78 171 -19 126 -47 109 -47 -29 l0 -70 93 -97 c134
-141 126 -127 90 -157 -18 -14 -47 -34 -66 -44 l-34 -18 -115 118 c-64 65
-135 138 -157 163 l-41 45 0 292 0 291 29 10 c70 25 111 135 77 210 -25 55
-70 82 -137 82 -50 0 -60 -4 -96 -38 -45 -41 -60 -86 -49 -147 8 -39 47 -91
76 -100 19 -6 20 -18 20 -329 l0 -323 29 -37 c78 -98 171 -192 228 -229 35
-23 63 -44 63 -48 0 -18 -61 -77 -147 -143 l-93 -72 -248 243 c-136 133 -252
243 -259 243 -15 0 -33 -32 -33 -57 0 -17 32 -53 47 -53 10 0 374 -377 402
-417 l25 -34 -50 -50 -50 -50 -118 123 c-65 68 -196 202 -291 299 -96 96 -179
189 -185 205 -13 33 -4 194 11 194 5 0 27 18 49 40 37 37 40 44 40 96 0 30 -5
64 -10 74 -17 32 -92 70 -138 70 -84 0 -118 -31 -129 -119 -6 -51 -6 -51 43
-99 27 -26 57 -52 67 -57 18 -10 18 -14 3 -87 -9 -43 -16 -89 -16 -104 0 -63
44 -117 330 -407 157 -158 286 -291 288 -295 1 -5 -19 -32 -45 -61 l-48 -52
-205 208 c-563 572 -531 538 -513 556 11 10 18 39 21 77 5 73 -11 103 -71 131
-114 51 -227 -7 -227 -118 0 -96 47 -141 151 -142 39 -1 50 -5 64 -27 24 -37
270 -296 576 -605 l156 -158 -37 -50 c-21 -28 -40 -56 -43 -63 -2 -8 -164 146
-376 357 -210 210 -383 374 -399 379 -15 5 -44 24 -66 43 -75 68 -156 79 -233
32 -56 -35 -83 -84 -83 -153 0 -118 60 -184 158 -173 l45 5 171 -175 c94 -97
269 -273 388 -391 120 -119 220 -223 223 -233 3 -10 -3 -35 -14 -56 -23 -46
-82 -196 -105 -269 l-17 -51 -217 -7 c-119 -4 -314 -5 -432 -2 -206 5 -340 -3
-396 -24 -20 -8 -23 -13 -15 -29 9 -17 30 -19 258 -25 136 -3 359 -7 496 -8
136 -1 253 -5 259 -9 8 -5 8 -23 -2 -69 l-13 -62 -514 3 c-502 4 -515 4 -529
-16 -13 -17 -12 -21 6 -40 20 -19 34 -20 523 -25 l502 -5 -3 -45 c-2 -25 -5
-52 -8 -61 -4 -14 -53 -15 -462 -12 -251 2 -508 7 -571 11 l-114 7 -4 29 c-6
40 -25 76 -61 110 -25 23 -41 29 -94 33 -54 4 -68 2 -97 -19 -55 -37 -76 -73
-75 -127 1 -65 19 -105 63 -138 31 -24 45 -28 102 -28 54 0 71 4 100 25 34 25
36 25 174 19 77 -4 340 -7 584 -8 l444 -1 -7 -62 c-4 -34 -10 -66 -12 -70 -3
-5 -259 -6 -570 -3 l-564 5 0 -40 c0 -57 18 -64 152 -55 60 4 307 4 549 0
l439 -8 0 -52 0 -52 -337 -6 c-186 -4 -456 -7 -599 -7 l-262 0 -6 24 c-10 42
-72 79 -140 84 -75 6 -115 -14 -157 -77 -28 -41 -30 -52 -27 -108 4 -70 23
-103 78 -140 77 -53 204 -4 246 94 8 17 18 34 22 37 11 6 1180 11 1186 5 3 -2
8 -28 12 -56 l6 -52 -551 -3 c-477 -3 -553 -5 -561 -18 -13 -21 -8 -33 21 -47
24 -11 450 -22 891 -23 l196 0 11 -32 c5 -18 11 -46 13 -61 l3 -28 -685 -2
-685 -2 -3 -27 c-2 -18 4 -31 20 -42 20 -14 96 -16 699 -16 l676 0 11 -51 c7
-28 12 -54 12 -58 0 -5 -231 -11 -512 -16 -381 -5 -521 -10 -543 -20 l-30 -13
45 -21 c44 -20 59 -21 531 -21 268 0 500 -3 516 -6 24 -5 32 -14 46 -55 10
-27 15 -54 11 -60 -6 -11 -1201 -12 -1250 -2 -16 3 -23 14 -27 42 -2 21 -15
54 -28 73 -76 117 -211 110 -272 -14 -38 -75 -31 -126 22 -180 65 -64 148 -62
229 8 40 34 44 35 61 20 35 -32 120 -36 717 -36 l594 0 17 -42 c19 -47 55
-118 96 -188 l26 -46 -82 -88 c-45 -49 -129 -134 -187 -190 -213 -205 -620
-620 -626 -638 -3 -10 -11 -18 -18 -18 -7 0 -35 -9 -62 -20 -66 -28 -94 -69
-94 -139 0 -93 54 -151 140 -151 85 0 150 61 150 141 l0 49 59 0 c106 0 108 2
273 162 84 82 227 220 318 306 91 86 200 192 243 235 42 44 77 76 77 71 0 -5
20 -33 45 -61 l46 -52 -158 -163 c-87 -90 -162 -168 -168 -174 -5 -6 -114
-118 -242 -248 -127 -130 -246 -257 -265 -280 -33 -43 -34 -44 -83 -39 -41 4
-56 1 -84 -19 -93 -64 -94 -215 -1 -263 61 -32 151 -12 195 43 29 37 36 70 24
116 -23 88 -62 42 558 668 l285 287 26 -32 c15 -18 36 -39 46 -48 19 -16 15
-21 -105 -146 -433 -450 -540 -563 -577 -606 l-42 -48 0 -143 0 -142 -37 -10
c-43 -10 -83 -61 -83 -103 0 -44 41 -113 80 -133 63 -34 153 -9 184 50 30 59
24 116 -19 159 l-35 35 0 129 0 130 47 52 c26 29 93 99 148 157 55 58 148 154
205 215 58 60 154 158 215 216 101 98 111 106 122 89 7 -10 29 -32 49 -48 l36
-30 -173 -178 c-95 -99 -232 -240 -304 -314 l-132 -136 -5 -179 c-4 -113 -2
-185 4 -192 14 -17 50 -16 73 1 18 13 19 27 17 177 l-2 164 298 304 298 304
56 -44 c31 -24 57 -48 57 -54 1 -10 -19 -33 -148 -175 -43 -47 -106 -117 -141
-157 l-63 -72 2 -424 c2 -419 2 -425 -18 -432 -30 -9 -69 -61 -77 -100 -10
-54 4 -103 40 -143 30 -32 39 -36 92 -39 71 -5 117 19 140 72 29 69 10 140
-51 194 l-34 29 -7 405 -7 405 59 64 c32 35 97 104 144 153 47 50 102 110 121
134 l36 43 49 -37 c27 -20 50 -39 52 -40 7 -6 -20 -47 -54 -85 -32 -35 -70
-117 -59 -128 3 -3 13 2 23 11 10 10 22 17 25 17 8 0 102 94 121 122 10 14 20
18 35 13 21 -6 21 -9 21 -450 0 -390 -2 -445 -16 -459 -8 -9 -22 -16 -30 -16
-8 0 -32 -16 -53 -36 -87 -78 -55 -219 56 -245 74 -17 141 28 163 111 12 44
-4 97 -42 137 -12 13 -17 26 -12 34 4 7 11 202 15 432 4 230 9 421 13 424 9 9
164 -58 170 -74 3 -8 6 -300 6 -649 l0 -634 -39 -39 c-66 -66 -68 -165 -5
-220 30 -27 42 -31 92 -31 45 0 65 6 94 25 86 58 68 188 -33 241 l-29 15 0
629 c0 347 4 630 8 630 4 0 39 -11 78 -23 l69 -24 6 -544 c3 -299 9 -554 13
-567 6 -16 14 -22 29 -20 18 2 23 12 29 48 3 25 7 274 7 553 l1 509 33 -7 c17
-4 44 -13 58 -20 16 -7 33 -9 40 -4 16 10 151 1 197 -13 18 -5 42 -22 54 -38
l20 -28 152 -1 c83 -1 203 -4 267 -7 l117 -7 12 37 c8 24 21 41 37 47 35 13
210 12 219 -2 4 -7 10 -37 15 -68 l8 -56 -2 65 -3 66 66 17 c36 9 76 20 89 23
l24 7 -6 -635 -6 -635 -44 -44 c-60 -60 -69 -107 -34 -183 28 -60 45 -73 110
-82 104 -15 189 85 163 190 -9 36 -61 93 -93 101 l-26 6 6 391 c4 215 7 507 7
648 l0 257 38 11 c20 6 54 20 74 30 l37 19 7 -46 c4 -25 4 -278 1 -562 -6
-537 -6 -539 35 -539 33 0 38 34 38 253 0 117 3 376 7 575 5 296 9 362 20 362
7 0 40 13 72 30 l59 29 6 -22 c3 -12 6 -299 6 -637 l0 -615 -36 -20 c-44 -24
-65 -62 -71 -134 -5 -55 -5 -57 38 -104 33 -36 53 -49 82 -54 49 -7 120 20
143 55 54 82 24 217 -52 236 l-24 6 0 594 c0 326 -3 620 -6 654 -6 56 -5 62
19 86 14 14 30 26 35 26 12 0 301 -292 323 -326 17 -28 17 -33 3 -74 -9 -26
-14 -68 -12 -101 l3 -57 -44 -6 c-24 -3 -66 -6 -93 -6 -44 0 -49 -2 -43 -17
59 -150 67 -178 55 -212 -12 -34 -12 -35 49 -92 33 -32 61 -64 61 -72 0 -18
-43 -124 -66 -164 -10 -17 -16 -34 -13 -38 10 -9 221 26 274 46 28 10 53 19
58 19 4 0 7 -30 7 -67 1 -92 13 -141 45 -172 25 -25 27 -25 40 -7 14 19 38
113 50 198 l6 48 38 -20 c21 -10 78 -24 127 -30 49 -6 104 -16 122 -22 18 -5
36 -7 39 -4 4 3 -5 36 -20 73 -23 61 -57 181 -57 203 0 9 87 30 125 30 39 0
75 18 69 34 -6 17 -83 51 -136 61 -29 6 -46 2 -74 -14 -44 -26 -57 -18 -52 35
3 36 6 39 36 42 21 2 32 -1 32 -9 0 -8 3 -10 10 -3 18 18 46 279 31 303 -11
18 -190 -1 -260 -28 -75 -28 -85 -9 -54 109 9 37 13 77 10 92 -6 21 -179 226
-245 289 -10 8 -46 46 -82 83 -63 65 -64 68 -45 82 11 8 43 37 72 66 l52 51
57 -44 c31 -24 86 -66 123 -92 132 -95 584 -554 622 -631 13 -27 30 -51 37
-53 19 -8 62 37 62 63 0 20 -63 104 -104 139 -15 13 -150 169 -201 232 -22 27
-60 65 -85 83 -51 38 -203 189 -228 228 -20 30 -131 104 -144 96 -10 -6 -48
23 -48 37 0 4 29 38 65 75 l65 69 172 -176 c95 -96 294 -298 441 -448 266
-270 269 -274 262 -308 -9 -48 10 -97 52 -134 33 -29 41 -31 90 -27 46 4 60
10 90 41 31 30 37 44 41 89 9 107 -47 172 -143 165 -27 -2 -57 -7 -66 -11 -15
-7 -153 126 -370 359 -95 102 -280 288 -416 419 -51 49 -93 90 -93 93 0 11 85
123 93 123 6 0 179 -169 385 -375 l375 -375 108 0 108 0 6 -45 c6 -35 16 -53
51 -85 36 -33 51 -40 85 -40 87 0 149 63 151 153 1 88 -57 147 -146 147 -47 0
-116 -31 -116 -52 0 -5 -46 -8 -101 -8 l-102 0 -243 248 c-134 136 -303 303
-377 372 l-134 125 30 50 c16 27 33 54 37 59 10 11 45 -17 160 -128 47 -45
105 -98 130 -118 l45 -35 142 -6 141 -5 4 44 3 44 -116 0 c-145 0 -160 7 -306
151 -60 58 -118 111 -130 117 -21 12 -21 13 34 104 50 84 101 183 117 231 5
16 40 17 533 17 591 0 789 7 816 25 16 11 13 15 -30 31 -44 17 -98 19 -660 24
-336 3 -614 8 -618 11 -3 4 1 22 9 40 8 19 17 41 19 50 8 27 74 29 651 29 300
-1 550 1 555 4 4 3 31 6 60 7 54 2 65 15 34 40 -13 11 -135 16 -637 22 -341 5
-622 9 -623 10 -1 2 6 28 15 60 l17 57 675 1 c371 1 689 4 705 8 32 7 47 43
25 65 -8 8 -130 11 -423 12 -227 0 -538 1 -693 2 l-280 2 10 60 10 60 170 1
c737 2 1053 6 1068 13 14 6 15 12 8 27 -22 40 -62 42 -655 46 -313 2 -571 5
-573 8 -2 2 -1 27 3 54 l7 51 619 0 619 0 0 -23 c0 -32 45 -98 86 -126 63 -43
152 -26 207 38 76 91 52 215 -53 273 -72 40 -205 2 -226 -64 -6 -20 -10 -20
-623 -13 -339 4 -619 10 -623 14 -3 3 -4 30 -1 59 l6 52 566 1 c311 1 580 4
596 8 25 5 31 12 33 38 3 25 -1 33 -19 38 -13 4 -151 6 -308 4 -157 -2 -420
-3 -583 -1 l-298 2 0 65 0 65 433 1 c237 1 509 4 602 8 l170 6 33 -27 c28 -24
41 -28 96 -28 49 0 71 5 97 23 69 46 97 164 53 224 -48 64 -127 90 -196 64
-46 -18 -96 -79 -104 -126 -3 -25 -9 -45 -13 -45 -157 -9 -323 -12 -711 -13
l-475 -2 -3 61 -3 61 473 5 c301 4 483 9 500 16 20 8 25 16 21 32 -3 11 -10
23 -17 27 -6 4 -234 6 -507 4 l-495 -3 -12 63 c-6 35 -10 64 -9 65 1 1 220 7
487 14 660 15 595 11 595 35 0 39 -58 43 -600 44 l-510 1 -44 133 c-53 161
-118 311 -176 409 -25 40 -45 76 -45 80 0 4 15 15 33 24 17 9 46 33 62 53 114
135 188 210 287 289 62 49 172 145 243 212 72 68 144 133 161 146 l30 24 54
-21 c47 -18 60 -19 92 -8 55 18 98 61 98 99 0 50 -27 96 -68 116 -31 15 -43
15 -81 5 -54 -14 -105 -51 -125 -90 -12 -22 -255 -261 -340 -334 -11 -10 -31
-27 -43 -38 -13 -10 -47 -35 -75 -55 -29 -20 -88 -73 -131 -118 -166 -171
-232 -236 -239 -236 -4 0 -14 13 -22 29 -8 15 -31 49 -51 75 l-36 47 20 32
c11 18 124 136 251 262 225 223 262 267 241 288 -25 25 -88 -25 -322 -258
l-241 -240 -35 40 c-119 136 -120 142 -56 185 46 31 172 154 202 198 l22 32
-21 0 c-37 0 -76 -27 -186 -130 -59 -55 -112 -100 -118 -100 -7 0 -45 34 -86
76 -41 41 -90 84 -107 95 -25 16 -33 28 -33 50 0 26 -3 29 -24 23 -19 -4 -40
7 -102 56 -43 34 -89 66 -103 71 -43 16 -71 32 -71 41 0 8 306 315 356 357 15
13 16 40 11 293 l-5 278 28 17 c66 38 95 155 53 211 -55 75 -153 96 -213 46
-88 -74 -78 -198 19 -253 l42 -23 -3 -258 -3 -258 -25 -25 c-14 -14 -92 -98
-175 -186 -82 -87 -152 -159 -155 -160 -3 0 -25 14 -50 33 l-46 33 8 124 c4
68 13 142 20 164 9 29 11 132 9 367 l-3 327 34 14 c75 31 107 140 64 214 -39
64 -158 97 -214 57z m126 -86 c28 -28 -3 -109 -41 -108 -21 1 -45 25 -52 52
-12 48 59 90 93 56z m-2533 -93 c30 -29 32 -56 5 -80 -45 -40 -104 17 -81 78
13 34 43 35 76 2z m3013 -67 c17 -17 15 -49 -4 -76 -21 -31 -63 -26 -83 9 -13
24 -13 29 2 53 19 28 63 36 85 14z m-3580 -101 c12 -24 11 -31 -2 -53 -19 -28
-60 -32 -88 -7 -24 21 -23 42 4 70 30 32 68 27 86 -10z m-780 -509 c27 -27 0
-98 -38 -98 -25 0 -50 26 -50 52 0 45 58 76 88 46z m3772 -212 c1 0 3 -41 7
-90 5 -84 4 -89 -13 -81 -11 4 -47 17 -81 29 -66 22 -75 35 -45 64 37 35 72
62 81 62 5 0 11 7 15 15 4 11 33 12 36 1z m-4129 -86 c24 -13 25 -51 2 -79
-16 -19 -23 -20 -52 -11 -39 11 -51 24 -51 57 0 37 57 56 101 33z m6232 -301
c15 -22 17 -30 8 -48 -15 -27 -51 -27 -74 -1 -20 24 -21 34 -4 60 16 27 45 22
70 -11z m-6501 -50 c26 -19 29 -26 25 -56 -3 -18 -12 -39 -19 -46 -19 -19 -61
-47 -70 -47 -12 0 -48 62 -48 82 0 16 63 88 76 88 3 0 19 -10 36 -21z m261
-196 c192 -186 521 -514 579 -578 l48 -51 -36 -67 -35 -66 -367 370 c-202 203
-371 378 -375 388 -6 12 -1 39 13 80 13 33 24 61 26 61 3 0 68 -62 147 -137z
m-978 -1578 c31 -30 31 -52 3 -82 -35 -37 -79 -29 -104 19 -8 16 -12 34 -8 41
30 53 71 61 109 22z m8020 5 c26 -29 22 -70 -9 -97 -15 -13 -38 -23 -51 -23
-48 0 -74 83 -38 122 22 24 75 23 98 -2z m-8092 -523 c28 -19 33 -78 9 -106
-24 -31 -75 -33 -104 -3 -26 25 -27 76 -2 103 20 22 72 25 97 6z m8152 -13
c31 -33 32 -76 3 -103 -31 -30 -56 -35 -83 -17 -31 21 -40 65 -21 110 13 30
20 36 46 36 21 0 39 -9 55 -26z m-8077 -710 c32 -22 30 -76 -3 -98 -29 -19
-66 -21 -83 -4 -15 15 -16 72 -2 99 13 23 57 25 88 3z m1669 -588 l42 -65 -34
-43 c-18 -24 -99 -106 -181 -183 -82 -77 -240 -231 -353 -342 l-204 -203 -67
0 c-37 0 -82 -3 -99 -6 -17 -4 -31 -2 -31 3 0 5 189 200 421 433 232 233 428
434 436 447 8 13 18 23 22 23 4 0 26 -29 48 -64z m3987 -918 c198 -202 216
-229 216 -320 0 -37 -3 -68 -6 -68 -4 0 -29 12 -56 27 -34 19 -111 92 -244
231 -107 111 -194 207 -194 212 0 11 100 80 115 80 5 0 82 -73 169 -162z
m1591 17 c14 -13 25 -31 25 -40 0 -23 -45 -65 -69 -65 -50 0 -63 84 -18 115
29 20 34 19 62 -10z m-6546 -19 c30 -31 23 -65 -18 -89 -37 -21 -55 -15 -75
28 -20 41 -20 44 1 67 23 25 65 23 92 -6z m279 -348 c15 -13 16 -70 0 -86 -19
-19 -66 -14 -88 8 -57 57 24 128 88 78z m6010 -30 c4 -44 -25 -73 -63 -64 -53
13 -54 86 -2 105 37 14 62 -2 65 -41z m-1170 -67 c38 -19 56 -41 34 -41 -5 0
-34 -16 -67 -35 l-58 -35 -36 17 c-36 18 -36 18 -39 91 l-3 72 64 -24 c35 -13
82 -33 105 -45z m367 -22 c14 -21 -6 -99 -32 -127 l-25 -27 -54 58 c-30 32
-54 62 -54 67 0 23 153 50 165 29z m-215 -129 c40 -39 80 -125 80 -172 0 -89
-87 -185 -157 -174 -45 7 -90 43 -113 91 -75 156 79 363 190 255z m-327 -16
c52 -7 55 -13 31 -69 -10 -25 -14 -60 -12 -102 3 -69 -9 -81 -50 -45 -41 34
-113 208 -94 226 3 4 22 5 42 2 19 -3 56 -8 83 -12z m-4307 -69 c7 -29 -18
-75 -41 -75 -20 0 -45 40 -45 72 0 26 3 28 40 28 34 0 41 -4 46 -25z m4821
-253 c12 -27 25 -60 28 -75 7 -26 6 -27 -35 -27 -48 0 -120 19 -120 31 0 5 13
23 28 41 16 18 37 43 48 56 10 12 21 22 24 22 3 0 15 -22 27 -48z m-414 -35
c13 -17 17 -31 11 -36 -12 -12 -132 -37 -140 -29 -10 10 16 77 34 88 29 17 74
7 95 -23z m-3038 -51 c34 -51 -29 -113 -67 -66 -21 25 -24 76 -5 83 29 12 57
6 72 -17z m-603 -153 c34 -30 13 -93 -30 -93 -27 0 -62 29 -62 51 0 52 53 77
92 42z m3103 -245 c14 -6 28 -22 31 -35 8 -31 -20 -73 -49 -73 -54 1 -76 61
-37 100 24 24 22 23 55 8z m-2184 -108 c38 -21 14 -90 -31 -90 -21 0 -50 35
-50 60 0 36 41 51 81 30z m1717 -77 c18 -16 19 -22 9 -53 -15 -44 -48 -52 -83
-19 -28 26 -30 46 -7 71 20 23 55 23 81 1z"/>
<path d="M4233 8828 c-4 -7 -9 -151 -11 -320 l-3 -308 32 -40 c18 -22 36 -40
40 -40 4 0 6 161 5 358 l-1 357 -27 3 c-14 2 -30 -3 -35 -10z"/>
<path d="M5507 8638 c-4 -46 -7 -176 -7 -289 l0 -207 35 35 35 35 0 244 c0
230 -1 244 -19 254 -11 5 -24 10 -29 10 -5 0 -12 -37 -15 -82z"/>
<path d="M5922 8590 c-33 -27 -38 -70 -12 -97 34 -38 67 -40 101 -7 35 34 37
67 4 99 -29 30 -62 31 -93 5z"/>
<path d="M7407 8478 c-8 -13 -38 -48 -67 -78 -28 -30 -63 -73 -78 -96 l-28
-41 -44 40 c-45 39 -109 77 -131 77 -16 0 -4 -71 21 -126 14 -34 22 -42 38
-37 33 8 64 -14 60 -45 -2 -21 -7 -26 -23 -23 -32 7 -123 5 -212 -4 -76 -7
-83 -10 -83 -30 0 -31 45 -160 78 -222 23 -45 25 -56 14 -73 -16 -26 -15 -30
8 -30 21 0 130 -38 143 -49 4 -4 -4 -33 -18 -65 -28 -64 -34 -146 -11 -146 8
0 36 18 61 40 25 22 53 40 60 40 8 0 37 14 63 30 74 45 79 42 87 -45 12 -123
51 -175 85 -110 8 17 18 32 22 35 4 3 14 34 24 68 l18 63 80 -6 c45 -3 109 -8
142 -11 73 -6 87 6 52 44 -14 15 -35 44 -48 65 l-22 38 36 34 c25 23 57 75
100 167 35 73 61 136 57 139 -3 3 -69 14 -146 23 -172 22 -165 20 -165 51 0
63 -116 304 -146 305 -7 0 -19 -10 -27 -22z m68 -227 c14 -42 25 -79 25 -82 0
-4 -19 -2 -42 3 -24 5 -71 7 -106 4 l-63 -7 16 38 c17 39 28 55 85 116 42 46
47 42 85 -72z m242 -180 c29 -4 55 -10 58 -13 16 -16 -88 -184 -119 -192 -12
-3 -34 -6 -50 -6 -22 0 -27 4 -22 16 12 32 26 155 20 180 -6 22 -3 24 27 23
19 0 58 -4 86 -8z m-585 -21 c-2 -8 -3 -59 -3 -113 0 -97 0 -97 -22 -86 -53
27 -88 63 -111 112 -42 93 -42 95 1 100 21 2 61 4 88 3 39 -1 49 -4 47 -16z
m139 -207 c9 -10 9 -12 -3 -8 -15 6 -39 60 -37 86 0 8 7 -4 15 -25 8 -21 19
-45 25 -53z m202 35 c-25 -45 -50 -66 -93 -79 -30 -9 -42 -8 -66 4 -16 9 -22
16 -13 17 8 0 21 -6 28 -12 10 -11 14 -10 22 5 6 10 22 17 39 17 39 0 63 26
55 59 -3 16 -2 21 3 13 7 -10 11 -10 22 3 21 25 23 9 3 -27z m164 -116 c15 -9
34 -58 26 -66 -8 -7 -78 -6 -118 3 -33 7 -44 33 -25 56 13 16 96 21 117 7z
m-397 -26 c12 -14 20 -32 17 -39 -6 -16 -75 -43 -84 -33 -10 9 19 96 32 96 6
0 22 -11 35 -24z"/>
<path d="M2587 8442 c-23 -25 -21 -64 4 -96 27 -35 62 -34 88 3 25 35 26 59 5
89 -19 28 -74 30 -97 4z"/>
<path d="M6332 8408 c-49 -53 -52 -126 -7 -168 20 -19 37 -24 78 -24 46 -1 57
3 80 28 72 78 22 186 -86 186 -32 0 -49 -6 -65 -22z"/>
<path d="M3304 8324 c-26 -27 -34 -44 -34 -71 0 -50 41 -117 85 -137 83 -40
185 30 185 127 0 75 -52 117 -146 117 -52 0 -59 -3 -90 -36z m151 -58 c30 -46
-24 -93 -74 -66 -25 13 -27 37 -5 68 20 30 59 29 79 -2z"/>
<path d="M4076 8163 c-6 -14 -5 -15 5 -6 7 7 10 15 7 18 -3 3 -9 -2 -12 -12z"/>
<path d="M2709 8117 c-64 -43 -61 -135 6 -177 84 -52 175 1 175 102 0 40 -15
65 -50 83 -42 21 -92 19 -131 -8z"/>
<path d="M4140 8033 c-36 -46 -77 -145 -90 -217 -21 -116 4 -297 55 -395 l17
-33 -39 -42 c-77 -81 -131 -152 -162 -213 l-31 -62 -57 -6 c-84 -10 -239 -64
-324 -113 -196 -113 -348 -289 -455 -528 -23 -51 -34 -88 -28 -94 10 -10 190
-62 279 -81 93 -19 307 -17 384 4 35 10 65 16 68 13 13 -13 -79 -158 -149
-232 -133 -142 -192 -299 -146 -389 11 -20 15 -57 15 -111 -1 -68 3 -87 23
-118 27 -45 74 -76 115 -76 22 0 44 -13 85 -51 30 -28 71 -59 90 -69 87 -45
261 -51 400 -14 66 17 213 85 225 104 3 5 18 10 32 10 34 0 159 -128 238 -245
33 -49 68 -93 77 -99 13 -8 27 -2 65 28 44 35 52 37 95 32 58 -6 108 -29 148
-66 28 -27 30 -32 30 -108 0 -94 -10 -125 -53 -171 -44 -46 -81 -60 -144 -54
-65 7 -65 6 -20 -102 47 -111 76 -201 97 -303 13 -61 19 -77 20 -52 1 29 3 32
10 15 7 -17 9 -14 10 15 2 32 3 33 10 10 l8 -25 1 24 c1 17 5 22 17 17 9 -4
23 -1 30 5 11 9 14 8 15 -2 0 -8 7 9 16 36 9 28 18 44 20 37 9 -25 23 1 23 44
0 24 4 44 9 44 5 0 4 11 -2 24 -7 15 -17 22 -27 18 -16 -6 -2 14 54 76 34 36
50 41 41 12 -7 -21 9 -28 20 -9 4 6 13 8 21 5 16 -6 17 0 4 29 -7 17 -9 17 -9
3 -1 -21 -17 -24 -24 -4 -5 13 10 36 23 36 12 0 199 186 247 245 136 168 317
486 371 655 42 129 72 317 81 510 l6 135 30 0 c29 0 30 -1 38 -65 19 -149 -10
-570 -48 -705 -40 -144 -55 -208 -55 -237 l0 -33 25 30 c13 17 27 39 31 50 4
11 17 36 30 55 70 105 129 417 137 718 l2 83 85 -51 c147 -90 261 -141 430
-195 41 -13 76 -23 77 -21 2 2 -5 28 -17 58 -19 51 -23 56 -78 78 -31 12 -136
63 -232 112 -149 76 -193 93 -300 119 -84 21 -154 45 -212 75 -76 38 -126 59
-91 36 14 -9 33 -140 33 -231 0 -104 -11 -195 -22 -179 -6 9 -8 0 -4 -24 2
-21 1 -38 -5 -38 -5 0 -9 -8 -9 -17 0 -15 2 -16 10 -3 8 13 10 13 10 -2 0 -28
-28 -153 -41 -182 -12 -26 -39 -36 -39 -14 0 8 -3 9 -10 2 -6 -6 -7 -25 -4
-43 5 -23 9 -29 15 -19 7 10 9 9 9 -4 0 -10 -4 -18 -10 -18 -5 0 -10 -9 -10
-20 0 -12 -5 -17 -14 -14 -9 4 -19 -9 -29 -40 -19 -55 -12 -61 9 -10 8 20 17
34 20 31 7 -7 -44 -120 -100 -222 -63 -116 -135 -222 -182 -271 -21 -22 -38
-42 -38 -46 -1 -8 -104 -118 -130 -138 -18 -13 -19 -13 -10 0 5 8 9 24 9 34 0
11 7 21 15 23 13 4 13 3 0 -6 -8 -5 -11 -13 -7 -17 4 -4 15 0 25 9 14 12 18
34 21 94 1 43 7 80 12 81 5 2 9 21 9 42 0 33 -3 38 -29 43 -17 4 -30 14 -34
26 -4 17 11 34 71 85 140 116 264 283 328 441 43 104 84 319 92 484 8 132 1
161 -39 161 -17 0 -19 7 -19 85 0 47 4 85 9 85 6 0 39 -22 75 -49 67 -51 131
-79 256 -113 114 -31 338 -35 500 -10 127 20 300 68 300 84 0 18 -115 237
-164 313 -73 111 -144 186 -258 271 -190 141 -423 234 -638 254 l-125 11 -57
62 c-31 34 -57 67 -58 74 0 7 13 27 28 45 67 78 110 169 137 290 13 62 15 89
6 149 -16 120 -87 269 -127 269 -12 0 -35 -43 -49 -90 -39 -131 -168 -278
-289 -330 l-49 -21 -86 26 c-121 35 -230 48 -336 40 -118 -8 -277 -41 -328
-66 l-39 -21 -40 39 c-78 74 -168 231 -188 328 -22 102 -34 113 -70 68z m1493
-238 c-17 -86 -131 -233 -228 -294 -36 -23 -65 -46 -65 -51 0 -5 14 -1 32 10
25 15 34 16 41 7 6 -9 7 -8 5 2 -4 16 15 38 50 59 27 15 35 15 26 0 -5 -8 -2
-9 10 -5 10 4 15 3 11 -3 -3 -5 -6 -25 -7 -45 -1 -27 -9 -41 -34 -60 -18 -14
-37 -25 -42 -25 -22 0 -100 42 -136 73 l-40 34 25 15 c13 8 50 30 83 49 84 49
187 164 228 255 33 73 33 74 40 42 3 -18 4 -46 1 -63z m-1473 62 c0 -58 63
-206 119 -277 l20 -25 -42 -37 c-31 -26 -45 -34 -54 -26 -19 16 -61 158 -69
231 -7 71 2 157 17 157 5 0 9 -11 9 -23z m1451 -217 c-12 -55 -42 -120 -74
-160 l-19 -25 7 25 c4 14 14 30 22 37 19 15 44 99 36 120 -5 12 -3 14 7 8 8
-5 11 -4 6 3 -6 11 14 55 22 47 2 -2 -1 -27 -7 -55z m-603 -86 c112 -25 136
-43 286 -209 119 -132 133 -145 157 -145 10 0 38 -18 61 -41 63 -61 109 -78
248 -94 247 -29 482 -128 668 -281 48 -39 108 -98 133 -130 54 -70 159 -240
159 -258 0 -13 -62 -30 -150 -40 -32 -4 -39 -3 -25 3 l20 10 -20 1 c-15 1 -12
4 12 15 23 10 31 19 27 29 -3 9 -1 16 6 16 6 0 9 4 5 10 -3 5 -13 6 -23 3 -15
-5 -15 -4 1 9 17 13 12 20 -81 103 -55 50 -97 94 -95 98 3 5 20 -6 39 -24 19
-18 34 -28 34 -21 0 7 4 12 10 12 5 0 7 -6 4 -14 -3 -9 1 -13 12 -13 9 1 19
-4 22 -12 3 -9 0 -11 -9 -7 -8 4 -3 -2 10 -13 12 -12 28 -18 34 -14 6 4 8 0 4
-11 -4 -10 -3 -15 3 -11 6 3 10 2 10 -3 0 -6 6 -12 14 -15 11 -4 9 3 -5 28
-22 37 -194 205 -210 205 -6 0 -8 -4 -4 -9 3 -5 1 -12 -5 -16 -5 -3 -10 -2
-10 2 0 5 -10 14 -22 22 -21 13 -22 13 -9 -2 7 -10 10 -17 5 -17 -5 0 -2 -5 6
-10 10 -7 11 -10 2 -10 -7 0 -15 7 -18 15 -4 8 -10 12 -15 9 -12 -7 -40 21
-31 31 4 5 1 5 -6 1 -7 -4 -23 -1 -36 7 -34 23 -162 65 -236 77 -36 7 -140 15
-231 18 l-166 7 -61 43 c-33 23 -63 39 -66 34 -3 -5 9 -53 25 -108 17 -54 44
-141 60 -193 30 -97 57 -310 40 -321 -5 -3 -11 -14 -14 -25 -5 -16 -6 -15 -5
5 1 47 -3 57 -12 35 -11 -25 -13 -95 -2 -95 12 0 12 -143 0 -175 -7 -16 -15
-32 -18 -35 -4 -3 -12 -18 -17 -35 -7 -20 -16 -29 -27 -27 -10 2 -16 -4 -16
-14 0 -10 -3 -15 -6 -11 -10 10 48 228 63 234 7 3 13 12 13 20 0 8 -4 11 -10
8 -5 -3 -10 -1 -10 4 0 6 3 11 8 11 9 0 7 143 -2 159 -4 6 -11 9 -16 6 -4 -3
-13 10 -20 28 -11 31 -12 31 -26 13 -7 -11 -14 -32 -14 -48 0 -31 -34 -183
-55 -243 -43 -126 -88 -200 -181 -292 -162 -161 -307 -213 -593 -213 l-111 0
5 -27 c4 -19 -2 -12 -18 20 -28 55 -66 99 -81 94 -6 -2 -9 -39 -7 -93 3 -97
-10 -142 -52 -188 -25 -27 -37 -32 -37 -17 0 5 9 13 20 16 11 3 20 13 20 22 0
13 -2 13 -17 2 -15 -13 -16 -11 -9 16 l8 30 -26 -28 c-14 -16 -26 -32 -26 -38
0 -5 -9 -9 -19 -9 -11 0 -26 -7 -35 -15 -8 -8 -29 -18 -47 -22 -31 -6 -31 -6
-9 -18 22 -12 22 -12 -7 -18 -17 -3 -43 -2 -59 2 -21 6 -32 3 -41 -8 -9 -13
-10 -11 -6 12 4 23 2 27 -16 27 -23 0 -63 23 -93 52 -10 10 -35 25 -55 34
l-38 17 56 12 c81 17 119 43 148 100 20 37 26 64 26 113 0 60 -2 65 -34 94
l-34 31 -96 -7 c-53 -3 -135 -9 -182 -12 -57 -4 -98 -3 -122 5 -62 21 -54 38
80 180 83 88 156 241 220 466 32 114 34 129 37 310 2 124 9 207 18 240 21 77
81 159 207 285 102 101 127 121 211 162 195 97 402 125 598 82z m-1148 -618
c0 -14 -4 -28 -10 -31 -5 -3 -10 -25 -10 -49 l0 -43 -86 -17 c-48 -9 -105 -26
-127 -36 -43 -21 -62 -26 -37 -10 8 5 10 10 4 10 -6 0 -17 -7 -24 -15 -7 -8
-9 -15 -5 -15 4 0 -9 -11 -29 -25 -20 -14 -41 -25 -46 -25 -4 0 -10 -5 -12
-12 -2 -6 -14 -12 -27 -13 -14 -1 -20 3 -17 12 7 18 2 16 -19 -7 -15 -17 -16
-20 -3 -15 9 4 19 1 24 -6 4 -8 3 -10 -4 -5 -11 7 -17 -6 -13 -27 1 -5 -3 -6
-7 -3 -5 3 -18 -4 -28 -17 -19 -21 -19 -21 1 -7 11 8 6 -1 -11 -20 -126 -143
-127 -170 -2 -110 34 17 64 30 67 30 12 -1 -42 -40 -55 -40 -20 0 -75 -36 -67
-43 3 -4 0 -7 -8 -8 -8 0 2 -7 21 -15 l35 -14 -33 6 c-19 3 -43 7 -55 9 -95
12 -117 18 -117 35 0 32 128 225 204 308 104 113 344 236 469 241 22 1 27 -3
27 -23z m1828 -192 c12 -4 22 -11 22 -16 0 -6 -6 -8 -14 -5 -9 4 -16 -1 -18
-10 -2 -12 -6 -9 -15 10 -13 29 -11 30 25 21z m-1858 -250 c-27 -81 -44 -98
-111 -118 -52 -16 -193 -22 -174 -8 14 10 15 42 2 42 -27 0 35 30 111 53 68
21 93 35 135 74 29 27 52 42 55 35 2 -7 -6 -42 -18 -78z m1996 21 c9 -8 11
-15 6 -15 -5 0 -15 7 -22 15 -7 8 -9 15 -6 15 4 0 14 -7 22 -15z m68 -50 c10
-8 22 -12 26 -10 5 3 21 -8 38 -23 17 -16 58 -37 91 -47 34 -10 59 -20 57 -23
-9 -8 -148 39 -185 62 -38 24 -70 56 -55 56 5 0 18 -7 28 -15z m363 -21 c45
-6 50 -9 37 -21 -8 -8 -19 -11 -26 -6 -7 4 -22 9 -33 10 -11 2 -33 7 -50 12
-28 9 -28 9 -5 10 14 0 48 -2 77 -5z m-2829 -81 c-10 -2 -28 -2 -40 0 -13 2
-5 4 17 4 22 1 32 -1 23 -4z m2149 -185 c-3 -8 -6 -5 -6 6 -1 11 2 17 5 13 3
-3 4 -12 1 -19z m106 -240 c-3 -15 -9 -25 -14 -22 -5 3 -9 0 -9 -7 0 -7 -3
-10 -6 -6 -3 3 0 22 7 41 15 40 30 36 22 -6z m-57 -113 c-9 -21 -16 -47 -15
-59 0 -21 0 -21 9 2 17 40 19 23 4 -28 -22 -74 -98 -226 -150 -299 -49 -71
-110 -141 -121 -141 -4 0 -17 -12 -30 -27 -19 -24 -24 -26 -33 -13 -9 12 -10
12 -8 -5 3 -18 -2 -20 -36 -17 -31 3 -38 1 -33 -11 3 -8 0 -20 -6 -26 -6 -6
-7 -11 -3 -11 17 0 -43 -41 -104 -71 -45 -22 -65 -28 -73 -20 -8 8 -5 11 11
11 19 0 21 2 10 14 -17 17 -54 4 -50 -18 4 -20 -5 -20 -24 -2 -21 21 -18 45 5
39 21 -5 61 12 61 27 0 5 -12 5 -27 1 -16 -5 -59 -5 -98 -1 l-70 7 72 2 c39 0
75 6 79 12 3 6 15 8 26 6 11 -3 17 -3 14 0 -3 4 12 14 35 24 76 35 237 130
243 145 3 8 14 14 25 14 14 0 21 8 23 27 2 14 9 28 16 31 11 3 12 0 3 -17 -10
-17 -9 -20 4 -15 10 4 15 20 15 50 0 37 3 44 19 44 23 0 36 16 20 25 -5 4 -8
14 -4 23 5 13 2 12 -15 -3 -11 -10 -20 -24 -20 -30 0 -7 -11 -20 -25 -29 -22
-15 -24 -15 -18 0 5 15 3 15 -23 -1 l-29 -17 25 22 c161 142 206 192 250 278
12 23 26 44 30 47 5 3 12 20 16 38 4 17 9 27 11 20 2 -6 -3 -28 -11 -48z
m-223 5 c-15 -22 -30 -40 -33 -40 -4 0 -6 -19 -5 -42 3 -47 -6 -58 -49 -58
-21 0 -27 4 -23 15 6 14 127 165 133 165 1 0 -9 -18 -23 -40z m-1692 -100 c26
0 59 4 73 10 36 13 32 -1 -5 -22 -36 -21 -152 -41 -183 -32 -27 8 -66 44 -66
60 0 21 23 22 79 2 30 -10 76 -18 102 -18z m1679 5 c-7 -9 -15 -13 -19 -10 -3
3 1 10 9 15 21 14 24 12 10 -5z m-70 -70 c-7 -9 -15 -13 -19 -10 -3 3 1 10 9
15 21 14 24 12 10 -5z m-190 -90 c-16 -19 -9 -19 37 0 20 8 38 14 40 11 7 -6
-78 -37 -87 -31 -11 7 -1 35 12 35 6 0 5 -6 -2 -15z m-157 -22 c-7 -2 -19 -2
-25 0 -7 3 -2 5 12 5 14 0 19 -2 13 -5z m17 -43 c-8 -5 -28 -9 -45 -9 -30 2
-30 2 5 9 51 11 57 11 40 0z m-163 -16 c-3 -3 -12 -4 -19 -1 -8 3 -5 6 6 6 11
1 17 -2 13 -5z m-290 -26 c-3 -8 -6 -5 -6 6 -1 11 2 17 5 13 3 -3 4 -12 1 -19z
m803 -8 c0 -5 -5 -10 -11 -10 -5 0 -7 5 -4 10 3 6 8 10 11 10 2 0 4 -4 4 -10z
m-135 -47 c-10 -3 -28 -11 -40 -18 -11 -8 -37 -17 -59 -21 l-39 -7 33 -13 c18
-8 37 -14 44 -13 6 0 0 5 -14 11 -15 6 -20 12 -12 15 7 3 19 -1 27 -7 9 -7 26
-10 42 -5 18 4 24 3 18 -3 -12 -11 -233 -57 -241 -50 -2 3 13 8 36 12 22 3 40
11 40 16 0 6 11 8 25 4 14 -3 25 -2 25 4 0 13 -24 22 -63 23 -24 0 -13 6 38
19 39 10 81 23 95 29 14 5 34 9 45 9 19 0 19 0 0 -5z m-917 -10 c-16 -2 -28
-9 -28 -14 0 -5 -5 -9 -11 -9 -8 0 -8 5 1 15 7 8 24 14 39 14 l26 -2 -27 -4z
m902 -23 c-8 -5 -22 -9 -30 -9 -10 0 -8 3 5 9 27 12 43 12 25 0z m-1269 -74
c53 -24 53 -25 20 -25 -36 -1 -121 36 -121 52 0 12 34 3 101 -27z m262 27
c-13 -2 -35 -2 -50 0 -16 2 -5 4 22 4 28 0 40 -2 28 -4z m493 -7 c12 -9 52
-16 97 -18 42 -2 77 -6 77 -10 0 -5 8 -8 17 -8 9 0 14 -2 12 -4 -2 -3 -55 1
-117 8 -78 9 -119 19 -130 30 -15 15 -15 16 4 16 11 0 29 -6 40 -14z m579
-106 c-3 -5 -10 -10 -16 -10 -5 0 -9 5 -9 10 0 6 7 10 16 10 8 0 12 -4 9 -10z
m-360 -153 l30 -4 -33 -2 c-24 -1 -39 6 -53 22 -26 32 -24 45 4 14 12 -14 36
-27 52 -30z m32 37 c-3 -3 -12 -4 -19 -1 -8 3 -5 6 6 6 11 1 17 -2 13 -5z m6
-21 c-7 -2 -19 -2 -25 0 -7 3 -2 5 12 5 14 0 19 -2 13 -5z m337 -18 c-7 -8
-18 -15 -24 -15 -6 0 -2 7 8 15 25 19 32 19 16 0z m-90 -50 c0 -3 -15 -11 -34
-19 -26 -11 -33 -19 -31 -37 1 -13 0 -16 -2 -6 -2 9 -9 17 -14 17 -20 0 -7 17
24 33 32 16 57 21 57 12z m-20 -599 c0 -11 -19 -15 -25 -6 -3 5 1 10 9 10 9 0
16 -2 16 -4z"/>
<path d="M4284 7268 c-53 -51 -100 -101 -106 -112 -5 -10 16 8 47 40 31 33 82
83 114 111 31 29 53 53 49 53 -4 0 -51 -42 -104 -92z"/>
<path d="M4137 7093 c-4 -3 -7 -11 -7 -17 0 -6 5 -5 12 2 6 6 9 14 7 17 -3 3
-9 2 -12 -2z"/>
<path d="M4953 7073 c15 -2 39 -2 55 0 15 2 2 4 -28 4 -30 0 -43 -2 -27 -4z"/>
<path d="M4863 6956 c-28 -13 -69 -42 -92 -65 -37 -37 -39 -38 -31 -13 10 25
9 26 -5 8 -8 -11 -15 -23 -15 -27 0 -4 -8 -5 -17 -3 -11 3 -32 -8 -50 -26 -18
-17 -33 -27 -33 -23 0 4 -10 -7 -22 -25 -25 -40 -27 -125 -3 -149 12 -11 13
-19 3 -36 -10 -20 -10 -21 5 -8 10 7 18 23 18 35 1 16 2 17 6 4 2 -9 -8 -42
-23 -72 -15 -31 -25 -59 -21 -62 3 -3 26 10 50 30 24 19 73 49 110 67 66 31
69 31 132 19 72 -14 120 -8 178 21 30 16 45 33 68 82 16 34 29 67 29 74 0 6
25 19 55 28 30 10 55 23 55 30 0 18 -127 99 -184 119 -72 24 -151 21 -213 -8z
m128 -106 c22 -12 25 -48 5 -75 -18 -25 -71 -24 -97 2 -24 23 -18 43 19 66 32
19 46 21 73 7z m-328 -170 c-3 -12 -8 -19 -11 -16 -5 6 5 36 12 36 2 0 2 -9
-1 -20z"/>
<path d="M3657 6834 c-16 -9 -27 -18 -24 -20 3 -3 20 4 38 15 39 24 28 28 -14
5z"/>
<path d="M3545 6770 c-3 -5 -2 -10 4 -10 5 0 13 5 16 10 3 6 2 10 -4 10 -5 0
-13 -4 -16 -10z"/>
<path d="M3510 6709 c0 -5 5 -7 10 -4 6 3 10 8 10 11 0 2 -4 4 -10 4 -5 0 -10
-5 -10 -11z"/>
<path d="M3300 6524 c-59 -70 -74 -93 -68 -100 6 -5 128 145 128 157 0 14 -1
13 -60 -57z"/>
<path d="M5450 5486 c0 -9 5 -16 10 -16 6 0 10 4 10 9 0 6 -4 13 -10 16 -5 3
-10 -1 -10 -9z"/>
<path d="M5430 5430 c-8 -5 -12 -12 -9 -15 4 -3 12 1 19 10 14 17 11 19 -10 5z"/>
<path d="M5391 5393 c-7 -3 -21 -13 -30 -22 -13 -13 -15 -20 -5 -28 9 -9 19
-3 42 23 28 32 26 40 -7 27z"/>
<path d="M5105 5219 c-22 -10 -34 -19 -27 -19 15 0 72 28 72 35 0 6 3 7 -45
-16z"/>
<path d="M5176 5224 c-11 -8 -21 -23 -23 -34 -2 -17 -1 -19 11 -8 8 7 12 16
10 20 -3 4 4 11 13 17 10 5 16 12 13 14 -3 3 -14 -1 -24 -9z"/>
<path d="M5330 5719 c0 -5 5 -7 10 -4 6 3 10 8 10 11 0 2 -4 4 -10 4 -5 0 -10
-5 -10 -11z"/>
<path d="M5010 7800 c138 -30 210 -41 229 -35 58 18 2 31 -174 40 -81 4 -91 3
-55 -5z"/>
<path d="M4505 7783 c-16 -2 -37 -6 -45 -9 -13 -5 -13 -7 1 -14 11 -6 52 -3
115 9 l99 19 -70 0 c-38 -1 -83 -3 -100 -5z"/>
<path d="M5843 7578 c-6 -35 -22 -93 -37 -130 -35 -87 -41 -118 -22 -118 7 0
21 -10 29 -23 12 -19 30 -26 98 -36 80 -12 121 -25 259 -78 238 -93 472 -261
595 -427 92 -126 250 -449 243 -497 -4 -34 -64 -63 -190 -95 -59 -14 -108 -29
-108 -31 0 -3 9 -22 19 -42 91 -168 120 -244 146 -368 15 -70 31 -135 35 -145
5 -9 15 -64 21 -122 l13 -106 243 0 243 0 0 33 c-2 188 -53 472 -125 697 -58
181 -152 394 -214 484 -17 24 -31 47 -31 50 0 8 -103 169 -115 181 -6 6 -22
27 -35 47 -14 20 -28 34 -32 32 -4 -3 -8 0 -8 7 0 12 -38 56 -151 174 -189
200 -391 342 -721 509 -152 78 -142 77 -155 4z m86 -151 c13 -17 5 -27 -24
-27 -12 0 -25 3 -28 7 -9 8 12 33 28 33 7 0 18 -6 24 -13z m-124 -77 c3 -5 1
-10 -4 -10 -6 0 -11 5 -11 10 0 6 2 10 4 10 3 0 8 -4 11 -10z m1045 -450 c0
-5 -2 -10 -4 -10 -3 0 -8 5 -11 10 -3 6 -1 10 4 10 6 0 11 -4 11 -10z m60 -70
c0 -5 -4 -10 -10 -10 -5 0 -10 5 -10 10 0 6 5 10 10 10 6 0 10 -4 10 -10z m64
-779 c22 -24 15 -37 -31 -56 -37 -16 -73 -19 -110 -9 -29 8 -20 29 26 59 45
29 92 32 115 6z m50 -147 c9 -3 16 -17 16 -30 0 -19 5 -24 26 -24 23 0 25 -3
22 -32 -3 -31 -5 -33 -57 -40 -49 -8 -56 -6 -86 19 -39 32 -48 85 -17 102 19
12 72 14 96 5z m105 -258 c18 -21 -23 -46 -75 -46 -49 0 -74 21 -54 45 16 20
113 21 129 1z"/>
<path d="M3815 7514 c-181 -92 -406 -254 -540 -389 -10 -11 -206 -224 -238
-260 -20 -23 -143 -200 -171 -248 -40 -67 -143 -274 -161 -322 -10 -27 -28
-72 -41 -100 -32 -71 -92 -278 -114 -392 -16 -88 -29 -196 -45 -382 l-5 -64
226 6 c147 4 231 10 238 17 6 6 11 45 11 90 0 67 3 81 20 94 11 9 23 16 27 16
14 0 27 -76 28 -160 1 -114 32 -365 40 -325 6 29 7 29 14 -12 4 -24 11 -43 16
-43 4 0 2 21 -6 47 -14 47 -11 70 6 43 7 -10 10 -11 10 -2 0 21 18 13 23 -10
2 -13 5 -3 6 21 0 24 4 41 8 38 3 -4 13 3 21 14 13 18 22 21 61 16 25 -4 84
-11 131 -17 47 -6 110 -18 140 -27 80 -23 122 -32 115 -25 -4 4 -23 13 -43 19
l-37 13 35 -5 c25 -4 31 -2 20 5 -8 5 -23 10 -32 10 -10 0 -18 5 -18 10 0 6
-9 10 -20 10 -11 0 -20 5 -20 11 0 6 9 8 23 4 12 -3 1 5 -26 19 -86 46 -140
121 -164 228 -12 54 -20 72 -25 60 -11 -25 -1 161 16 306 5 41 90 196 133 241
24 25 43 45 43 46 0 1 -51 5 -112 8 -62 3 -120 8 -128 11 -11 5 -21 -10 -38
-56 -21 -56 -47 -115 -74 -171 -4 -9 -10 -38 -13 -62 -2 -25 -13 -61 -24 -79
-12 -18 -21 -42 -21 -54 0 -12 -9 -22 -23 -26 -13 -3 -30 -18 -38 -33 l-14
-28 -3 50 c-4 60 12 142 43 210 12 27 31 77 41 110 10 33 29 80 41 105 26 52
30 74 6 45 -15 -20 -15 -20 -10 4 5 20 3 22 -18 18 -14 -2 -22 -1 -20 3 2 4
-20 13 -49 20 -62 15 -165 67 -180 92 -10 17 2 54 61 185 12 28 23 56 23 61 0
13 96 169 142 231 32 43 38 55 27 63 -11 7 -9 8 5 4 13 -5 35 11 84 59 37 36
69 65 73 65 3 0 22 13 40 30 82 71 304 172 414 187 44 6 49 9 92 74 24 38 65
87 91 109 35 31 43 43 34 52 -9 9 -12 8 -12 -5 0 -10 -8 -17 -17 -17 -11 0
-14 3 -7 8 19 13 22 38 9 88 -8 27 -14 39 -14 27 -1 -12 3 -32 8 -46 7 -18 6
-24 -4 -24 -8 0 -12 4 -10 8 11 16 -9 68 -29 77 -11 6 -15 11 -8 11 6 1 12 6
12 11 0 15 -9 12 -85 -26z m-869 -1439 c10 -8 35 -15 55 -15 19 0 43 -6 53
-13 16 -12 17 -17 6 -36 -10 -19 -17 -22 -43 -17 -18 3 -54 7 -82 8 -49 3 -50
4 -53 37 -5 48 25 65 64 36z m32 -206 c13 -5 22 -17 22 -29 0 -17 -6 -20 -48
-20 -27 0 -52 3 -56 8 -8 7 -13 8 -43 11 -26 2 -46 17 -39 29 7 12 131 13 164
1z m-13 -169 c0 -22 -5 -25 -42 -28 -40 -3 -43 -1 -43 21 0 32 8 38 50 35 30
-3 35 -7 35 -28z m342 -117 c-3 -10 -5 -2 -5 17 0 19 2 27 5 18 2 -10 2 -26 0
-35z m203 -373 c0 -6 -5 -10 -12 -10 -6 0 -8 3 -5 7 4 3 -1 12 -11 20 -15 13
-15 13 6 3 12 -6 22 -15 22 -20z m23 -27 c-7 -2 -21 -2 -30 0 -10 3 -4 5 12 5
17 0 24 -2 18 -5z"/>
<path d="M8260 7370 c-19 -4 -27 -8 -17 -9 9 0 17 -5 17 -11 0 -5 11 -12 25
-16 26 -6 75 17 75 36 0 11 -47 11 -100 0z"/>
<path d="M8105 7011 c-46 -11 -67 -25 -117 -79 -64 -68 -81 -112 -75 -188 11
-145 131 -263 268 -264 145 0 269 127 269 277 0 117 -66 229 -151 253 -38 11
-149 12 -194 1z m195 -161 c0 -5 -2 -10 -4 -10 -3 0 -8 5 -11 10 -3 6 -1 10 4
10 6 0 11 -4 11 -10z"/>
<path d="M1578 6958 c-88 -23 -159 -122 -160 -223 0 -97 45 -170 132 -215 192
-98 405 100 320 298 -29 66 -84 117 -151 136 -59 18 -87 19 -141 4z m148 -133
c36 -28 59 -83 50 -120 -13 -53 -93 -103 -143 -90 -15 3 -45 24 -65 46 -51 53
-51 90 -2 147 32 38 40 42 81 42 34 0 55 -7 79 -25z"/>
<path d="M7521 6750 c-92 -10 -124 -27 -101 -54 10 -14 43 -16 202 -16 111 0
197 4 209 10 24 14 24 36 0 50 -28 14 -210 20 -310 10z"/>
<path d="M7647 6534 c-28 -15 -52 -57 -43 -79 7 -20 66 -45 104 -45 54 0 80
60 47 107 -18 25 -75 34 -108 17z"/>
<path d="M8686 6535 c-13 -34 -6 -56 20 -65 35 -14 56 4 52 44 -3 27 -7 31
-34 34 -22 2 -33 -2 -38 -13z"/>
<path d="M2125 6506 c-54 -24 -69 -49 -62 -108 10 -82 93 -167 149 -153 56 14
98 144 66 204 -30 55 -100 81 -153 57z"/>
<path d="M1247 6439 c-49 -13 -77 -49 -77 -99 0 -57 16 -88 59 -117 50 -34
107 -31 154 8 l37 30 117 -6 c65 -4 205 -8 311 -9 175 -1 193 1 198 17 3 9 3
26 -1 36 -9 28 -112 35 -387 27 l-227 -7 -15 33 c-31 73 -96 107 -169 87z m85
-103 c17 -39 4 -56 -42 -56 -46 0 -59 17 -42 56 9 18 19 24 42 24 23 0 33 -6
42 -24z"/>
<path d="M8560 6436 c-26 -14 -61 -58 -73 -88 -5 -15 -37 -17 -344 -20 -246
-2 -350 0 -383 9 -63 18 -94 16 -113 -5 -24 -27 -21 -55 9 -86 30 -30 86 -35
120 -12 16 11 87 15 362 17 333 3 342 2 364 -18 37 -33 68 -45 119 -46 52 -1
80 16 105 65 18 35 18 101 -1 137 -26 52 -111 76 -165 47z m81 -86 c22 -12 25
-52 5 -69 -21 -17 -66 -3 -66 21 0 25 18 58 31 58 6 0 19 -5 30 -10z"/>
<path d="M6542 6119 c-18 -3 -36 -9 -39 -12 -6 -7 127 -69 139 -65 11 4 -37
74 -54 80 -7 3 -28 1 -46 -3z"/>
<path d="M6270 5903 c0 -5 7 -102 15 -218 7 -115 11 -246 8 -290 -4 -57 -2
-77 5 -70 24 23 59 217 68 379 4 68 9 104 15 95 6 -10 9 -10 9 -1 0 14 29 16
50 2 13 -9 13 -11 0 -20 -13 -8 -13 -10 2 -10 9 0 18 5 20 11 3 9 10 9 27 0
12 -7 24 -11 27 -9 2 2 -30 21 -71 42 -41 21 -78 42 -81 47 -5 9 -78 49 -89
49 -3 0 -5 -3 -5 -7z"/>
<path d="M3331 5614 c0 -11 3 -14 6 -6 3 7 2 16 -1 19 -3 4 -6 -2 -5 -13z"/>
<path d="M6812 5465 c0 -16 2 -22 5 -12 2 9 2 23 0 30 -3 6 -5 -1 -5 -18z"/>
<path d="M6821 5363 c-1 -51 -13 -65 -33 -38 -4 6 -8 1 -8 -10 0 -26 -18 -45
-36 -38 -8 3 -14 -1 -14 -11 0 -9 6 -13 13 -10 10 3 14 -8 15 -43 2 -45 1 -47
-13 -28 -15 18 -15 13 -10 -65 7 -89 21 -143 36 -134 5 3 9 -5 9 -18 0 -18 2
-20 10 -8 7 11 10 5 11 -25 l1 -40 15 35 c19 44 29 314 15 415 l-9 70 -2 -52z"/>
<path d="M2500 5216 c0 -55 19 -233 36 -336 18 -107 71 -298 110 -398 73 -184
205 -435 279 -528 22 -28 61 -80 86 -115 68 -94 248 -279 363 -374 288 -237
688 -433 1046 -514 119 -27 387 -63 440 -59 l45 3 0 230 0 230 -100 8 c-225
16 -508 87 -673 167 -34 16 -65 30 -68 30 -16 0 -269 157 -295 182 -8 8 -22
19 -32 24 -10 6 -66 57 -124 115 -134 133 -328 380 -416 529 -27 47 -147 359
-147 383 0 8 -9 39 -19 70 -22 63 -50 230 -53 322 l-3 60 -237 3 -238 2 0 -34z
m980 -1486 c0 -5 -4 -10 -10 -10 -5 0 -10 5 -10 10 0 6 5 10 10 10 6 0 10 -4
10 -10z m94 -99 c17 -7 17 -8 2 -24 -10 -9 -21 -17 -26 -17 -14 0 -22 19 -16
35 6 16 12 17 40 6z m116 -95 c0 -8 4 -16 10 -18 5 -1 1 -14 -10 -28 l-19 -25
-11 29 c-6 16 -9 35 -6 43 7 17 36 17 36 -1z m515 -225 c3 -11 -1 -36 -10 -56
-13 -32 -17 -35 -30 -25 -15 13 -20 56 -9 84 9 22 41 20 49 -3z m134 -50 c9
-6 11 -15 6 -27 -8 -18 -8 -18 -13 1 l-5 20 -8 -20 c-7 -17 -8 -16 -8 8 -1 28
5 32 28 18z m171 -65 c0 -26 -24 -51 -40 -41 -16 10 -12 43 8 54 26 16 32 13
32 -13z"/>
<path d="M6940 5202 c0 -192 -96 -566 -195 -762 -80 -157 -288 -441 -411 -561
-84 -82 -260 -217 -328 -251 -23 -11 -52 -28 -66 -38 -72 -50 -407 -168 -553
-194 -79 -14 -254 -34 -347 -39 l-45 -2 0 -230 0 -230 105 3 c234 5 450 44
680 122 353 119 658 307 915 565 312 313 536 682 643 1060 19 65 31 120 68
300 8 39 17 123 21 188 l6 117 -246 0 -247 0 0 -48z m-358 -1409 c25 -22 24
-69 -3 -83 -41 -22 -85 45 -53 81 21 23 32 24 56 2z m-474 -378 c13 -29 5 -33
-14 -7 -15 20 -18 32 -6 32 5 0 14 -11 20 -25z m-100 -56 c4 -49 -22 -60 -43
-19 -23 45 -20 62 13 58 23 -3 27 -8 30 -39z m-228 -72 c0 -12 -9 -30 -20 -40
-19 -16 -20 -15 -30 3 -14 26 3 60 30 60 14 0 20 -7 20 -23z m-164 -52 c10
-26 -5 -67 -23 -63 -17 3 -36 54 -27 70 9 14 44 9 50 -7z m-162 -30 c15 -16
12 -45 -5 -45 -11 0 -29 42 -22 53 6 10 10 9 27 -8z m-104 -19 c0 -24 -12 -46
-21 -40 -15 9 -10 54 6 54 8 0 15 -6 15 -14z m-137 -46 c-2 -48 -18 -58 -37
-22 -20 40 -20 49 2 55 30 8 37 1 35 -33z"/>
<path d="M3575 5200 c-3 -5 1 -10 9 -10 9 0 16 5 16 10 0 6 -4 10 -9 10 -6 0
-13 -4 -16 -10z"/>
<path d="M3640 5172 c0 -12 19 -26 26 -19 2 2 -2 10 -11 17 -9 8 -15 8 -15 2z"/>
<path d="M4350 5140 c-112 -58 -191 -75 -345 -75 -112 1 -121 0 -70 -8 33 -5
64 -12 69 -17 5 -5 -1 -6 -14 -3 -17 5 -21 3 -15 -7 6 -10 3 -12 -13 -8 -45
12 -8 -12 102 -66 113 -55 238 -132 299 -184 106 -90 216 -208 278 -299 38
-56 69 -105 69 -110 0 -4 18 -44 40 -88 22 -44 40 -85 40 -92 0 -7 6 -10 14
-7 17 7 20 111 4 209 -11 71 -70 248 -93 275 -27 33 -65 128 -71 175 -3 28
-13 66 -22 85 -9 19 -16 37 -15 41 3 12 -164 220 -176 218 -3 0 -40 -18 -81
-39z"/>
<path d="M3173 5110 c0 -30 2 -43 4 -27 2 15 2 39 0 55 -2 15 -4 2 -4 -28z"/>
<path d="M3680 5141 c0 -5 14 -14 30 -20 17 -5 30 -8 30 -6 0 3 -13 11 -30 20
-16 9 -30 11 -30 6z"/>
<path d="M3309 5061 c0 -3 0 -66 1 -138 2 -241 60 -446 194 -685 148 -263 453
-510 742 -601 121 -38 245 -57 377 -57 l118 0 -6 133 c-12 238 -42 390 -106
526 -91 195 -255 386 -429 500 -167 110 -386 209 -593 267 -100 28 -297 65
-298 55z m286 -156 c437 -147 678 -300 835 -531 55 -81 116 -192 108 -199 -2
-3 -37 35 -76 84 -40 48 -106 119 -148 157 -42 38 -93 84 -113 102 -115 107
-249 180 -534 295 -217 88 -279 118 -285 136 -7 20 63 6 213 -44z m240 -370
c84 -70 563 -538 609 -595 15 -19 64 -71 107 -116 67 -69 92 -104 75 -104 -6
0 -173 124 -246 183 -90 73 -202 177 -367 344 -200 201 -283 298 -283 328 0
14 6 25 13 25 7 0 49 -29 92 -65z"/>
<path d="M6515 5060 c-188 -29 -484 -140 -671 -252 -221 -133 -386 -288 -511
-482 -86 -132 -153 -412 -153 -635 l0 -124 133 6 c307 14 529 91 757 260 158
118 271 242 363 400 117 199 187 478 187 744 l0 93 -27 -1 c-16 -1 -50 -5 -78
-9z m45 -108 c0 -12 -202 -110 -315 -152 -130 -49 -217 -91 -340 -163 -112
-66 -266 -187 -318 -250 -19 -23 -45 -53 -57 -67 -103 -116 -226 -397 -207
-472 3 -10 1 -21 -4 -24 -5 -3 -9 -16 -9 -30 0 -24 1 -24 28 -10 16 8 38 28
50 43 12 15 39 51 61 79 21 28 129 141 238 250 357 358 523 494 523 428 0 -29
-351 -395 -575 -599 -55 -49 -106 -97 -115 -105 -9 -8 -52 -48 -97 -89 -46
-40 -85 -81 -88 -91 -3 -9 -17 -22 -32 -29 l-26 -12 6 53 c39 353 72 462 195
635 172 243 449 421 867 556 182 59 215 66 215 49z"/>
<path d="M3091 5024 c0 -11 3 -14 6 -6 3 7 2 16 -1 19 -3 4 -6 -2 -5 -13z"/>
<path d="M3141 5024 c0 -11 3 -14 6 -6 3 7 2 16 -1 19 -3 4 -6 -2 -5 -13z"/>
<path d="M3173 5000 c0 -25 2 -35 4 -22 2 12 2 32 0 45 -2 12 -4 2 -4 -23z"/>
<path d="M3101 4984 c0 -11 3 -14 6 -6 3 7 2 16 -1 19 -3 4 -6 -2 -5 -13z"/>
<path d="M3101 4944 c0 -11 3 -14 6 -6 3 7 2 16 -1 19 -3 4 -6 -2 -5 -13z"/>
<path d="M4844 4921 c-63 -30 -74 -43 -74 -91 0 -58 93 -117 162 -103 37 7 88
74 88 115 0 42 -29 86 -63 98 -42 14 -44 14 -113 -19z m48 -28 c21 -24 29 -55
19 -72 -14 -22 -39 -5 -50 35 -15 53 1 71 31 37z"/>
<path d="M8910 4581 c-44 -24 -64 -47 -79 -90 -18 -54 -13 -101 14 -148 43
-72 122 -99 196 -65 74 32 106 90 95 169 -8 58 -43 105 -99 132 -53 26 -81 26
-127 2z m117 -103 c27 -25 30 -69 7 -92 -8 -9 -32 -16 -53 -16 -30 0 -40 5
-51 24 -13 25 -7 70 12 93 16 20 59 15 85 -9z"/>
<path d="M6691 4534 c-15 -61 -8 -68 9 -9 7 25 10 48 8 51 -3 2 -11 -16 -17
-42z"/>
<path d="M5305 4540 c3 -5 8 -10 11 -10 2 0 4 5 4 10 0 6 -5 10 -11 10 -5 0
-7 -4 -4 -10z"/>
<path d="M5291 4502 c-17 -31 -13 -40 5 -14 9 13 14 26 11 29 -3 2 -10 -4 -16
-15z"/>
<path d="M5200 4473 c0 -15 2 -16 10 -3 5 8 12 11 16 7 4 -3 1 -15 -7 -24 -12
-17 -12 -17 5 -1 20 17 14 38 -10 38 -8 0 -14 -8 -14 -17z"/>
<path d="M5250 4455 c-6 -8 -10 -19 -8 -26 2 -6 9 0 16 15 13 29 10 33 -8 11z"/>
<path d="M5170 4318 c0 -2 -7 -21 -15 -43 -11 -33 -14 -35 -15 -15 -1 23 -2
23 -11 6 -8 -13 -8 -20 0 -25 7 -4 9 -16 6 -27 -8 -25 24 30 41 73 9 20 10 33
4 33 -5 0 -10 -1 -10 -2z"/>
<path d="M8565 4188 c-11 -6 -35 -24 -53 -41 l-32 -31 -198 17 c-173 15 -315
21 -404 18 -24 -1 -28 -5 -28 -30 0 -21 6 -30 23 -35 12 -3 152 -11 311 -16
158 -6 292 -13 297 -16 5 -3 9 -14 9 -26 0 -35 31 -87 65 -108 39 -24 104 -26
149 -5 81 39 99 184 30 244 -46 40 -124 54 -169 29z m99 -94 c36 -35 28 -96
-14 -109 -62 -20 -99 82 -40 112 32 16 35 16 54 -3z"/>
<path d="M2183 4178 c-12 -6 -24 -21 -27 -34 -7 -25 -26 -33 -26 -11 0 13
-148 20 -440 22 l-75 0 -3 -34 c-2 -20 2 -37 10 -42 19 -12 342 -11 413 2 108
19 116 19 132 4 38 -38 106 -3 106 56 0 46 -39 62 -90 37z"/>
<path d="M5121 4174 c0 -11 3 -14 6 -6 3 7 2 16 -1 19 -3 4 -6 -2 -5 -13z"/>
<path d="M2330 4133 c-24 -30 -20 -69 7 -90 22 -17 26 -17 57 8 31 24 35 68 8
92 -26 24 -47 21 -72 -10z"/>
<path d="M1237 4130 c-59 -47 -86 -161 -47 -200 22 -22 37 -25 60 -10 12 8 11
15 -8 48 -12 22 -22 52 -22 67 0 40 38 29 75 -22 16 -23 33 -42 36 -42 17 -2
59 48 65 76 6 28 2 37 -29 68 -41 41 -89 47 -130 15z"/>
<path d="M7532 4120 c-42 -40 -41 -89 5 -134 54 -54 163 -16 163 58 0 73 -115
125 -168 76z"/>
<path d="M2093 4003 c-29 -6 -73 -58 -73 -88 0 -73 132 -104 175 -42 46 66
-16 145 -102 130z"/>
<path d="M7771 3886 c-17 -21 -10 -87 12 -100 13 -8 24 -7 45 5 22 12 27 22
25 49 -2 51 -54 80 -82 46z"/>
<path d="M8165 3871 c-76 -19 -132 -68 -164 -144 -26 -61 -27 -122 -1 -194 36
-102 107 -153 215 -153 103 0 176 45 222 134 55 108 34 229 -54 306 -63 55
-132 71 -218 51z m128 -133 c127 -90 14 -294 -124 -223 -70 37 -91 137 -42
196 49 58 108 67 166 27z"/>
<path d="M1564 3831 c-156 -71 -169 -298 -22 -392 133 -85 296 -17 339 143 18
70 -11 155 -74 216 -55 53 -166 68 -243 33z m147 -96 c16 -9 39 -30 49 -48 35
-57 23 -116 -34 -155 -77 -53 -175 1 -176 97 0 92 82 146 161 106z"/>
<path d="M7820 3375 c0 -3 9 -16 21 -28 11 -12 41 -50 66 -84 49 -66 69 -81
53 -37 -20 53 -87 134 -110 134 -5 0 -10 5 -10 10 0 6 -4 10 -10 10 -5 0 -10
-2 -10 -5z"/>
<path d="M3417 2700 l-67 -69 -3 -468 c-2 -424 -4 -471 -19 -498 -22 -37 -22
-54 -2 -83 19 -27 87 -31 122 -6 28 19 29 62 3 96 -18 23 -19 48 -22 466 l-3
443 68 68 69 69 -26 26 c-14 14 -32 26 -39 26 -7 0 -43 -32 -81 -70z"/>
<path d="M4487 2593 c-23 -187 -17 -269 29 -405 42 -125 158 -265 268 -324
l58 -31 -75 -56 c-135 -102 -210 -203 -258 -349 -16 -48 -23 -98 -26 -205 -3
-78 -2 -158 1 -178 7 -36 7 -36 54 -33 l47 3 6 165 c6 182 22 250 80 342 44
68 155 167 233 208 79 41 73 43 197 -69 96 -88 162 -186 197 -291 19 -59 26
-105 31 -220 l6 -145 45 0 c43 0 44 1 53 40 13 61 1 240 -23 330 -44 164 -150
317 -270 390 -33 20 -60 40 -60 45 0 4 28 28 63 53 118 84 200 199 253 353 25
72 28 92 28 224 0 80 -3 157 -7 173 -7 24 -12 27 -52 27 l-45 0 0 -138 c0
-155 -12 -217 -61 -315 -63 -124 -92 -155 -247 -259 -30 -21 -61 -38 -69 -38
-8 0 -47 22 -87 49 -187 127 -265 294 -266 569 l0 132 -49 0 -48 0 -6 -47z"/>
<path d="M4651 2528 c-11 -31 -3 -55 22 -62 12 -3 149 -6 305 -6 l282 0 0 35
c0 20 -6 37 -12 39 -7 3 -143 7 -301 10 l-288 6 -8 -22z"/>
<path d="M2790 2387 c-44 -22 -64 -92 -37 -128 36 -47 95 -51 131 -8 35 41 34
83 -3 120 -32 32 -53 35 -91 16z"/>
<path d="M4672 2337 c2 -18 11 -23 53 -28 28 -3 84 -3 125 1 41 4 61 8 45 9
-17 0 -55 7 -85 15 -30 8 -74 17 -98 20 -41 5 -43 4 -40 -17z"/>
<path d="M7655 2325 c-14 -13 -25 -33 -25 -43 0 -30 31 -61 66 -68 60 -11 96
60 58 114 -21 30 -68 29 -99 -3z"/>
<path d="M4760 2290 c-55 -4 -65 -8 -68 -25 -1 -11 3 -28 10 -38 12 -15 39
-17 251 -21 l239 -4 15 35 c8 20 11 39 6 43 -10 9 -362 17 -453 10z"/>
<path d="M5501 2204 c0 -11 3 -14 6 -6 3 7 2 16 -1 19 -3 4 -6 -2 -5 -13z"/>
<path d="M2585 2120 c-20 -22 -15 -59 11 -84 22 -22 41 -20 70 9 25 26 26 52
2 83 -16 18 -63 14 -83 -8z"/>
<path d="M4795 2120 c-3 -5 -3 -21 1 -35 8 -33 32 -38 167 -39 l109 -1 24 30
c13 17 23 33 21 37 -3 11 -315 19 -322 8z"/>
<path d="M4440 2101 c0 -18 42 -91 52 -91 4 0 8 -6 8 -12 0 -7 25 -40 55 -73
36 -40 50 -62 42 -67 -9 -5 -9 -10 2 -20 11 -10 14 -10 18 0 3 6 9 12 14 12 6
0 7 -4 4 -10 -4 -6 1 -7 11 -3 12 4 15 3 10 -5 -4 -7 -3 -12 3 -12 5 0 13 5
16 10 3 6 3 10 -2 10 -21 0 -145 133 -183 195 -49 81 -50 82 -50 66z"/>
<path d="M2674 1916 c-23 -36 -15 -70 18 -74 47 -6 73 64 34 90 -20 14 -35 8
-52 -16z"/>
<path d="M4564 1871 c0 -11 5 -17 13 -14 10 4 11 9 2 19 -15 18 -15 18 -15 -5z"/>
<path d="M4610 1810 c-10 -6 -11 -10 -2 -10 18 0 15 -17 -11 -42 -62 -63 -73
-85 -14 -28 37 35 67 69 67 75 0 5 -4 4 -9 -4 -7 -11 -10 -11 -12 2 -3 12 -8
14 -19 7z"/>
<path d="M5319 1742 c5 -10 18 -25 27 -33 11 -9 9 -2 -6 19 -26 35 -36 42 -21
14z"/>
<path d="M4853 1640 c-68 -41 -33 -63 87 -54 98 7 120 12 120 27 0 45 -147 64
-207 27z"/>
<path d="M4475 1599 c-4 -6 -5 -12 -2 -15 2 -3 7 2 10 11 7 17 1 20 -8 4z"/>
<path d="M4712 1501 c-8 -4 -14 -24 -15 -42 l-2 -34 225 0 c276 -1 280 -1 280
30 0 52 -13 55 -253 55 -122 0 -228 -4 -235 -9z"/>
<path d="M5486 1437 c3 -10 9 -15 12 -12 3 3 0 11 -7 18 -10 9 -11 8 -5 -6z"/>
<path d="M5501 1394 c0 -11 3 -14 6 -6 3 7 2 16 -1 19 -3 4 -6 -2 -5 -13z"/>
<path d="M5513 1335 c0 -22 2 -30 4 -17 2 12 2 30 0 40 -3 9 -5 -1 -4 -23z"/>
<path d="M4650 1301 l0 -39 233 -7 c127 -4 264 -5 302 -3 l70 3 0 35 c0 31 -3
35 -35 41 -19 4 -155 8 -302 9 l-268 0 0 -39z"/>
<path d="M5521 1244 c0 -11 3 -14 6 -6 3 7 2 16 -1 19 -3 4 -6 -2 -5 -13z"/>
<path d="M4923 1173 l-273 -3 0 -29 c0 -16 6 -33 13 -38 7 -6 129 -9 302 -9
l290 1 3 43 c3 42 3 42 -30 40 -18 -2 -156 -4 -305 -5z"/>
<path d="M5522 1060 c0 -14 2 -19 5 -12 2 6 2 18 0 25 -3 6 -5 1 -5 -13z"/>
<path d="M5005 990 c-24 -4 12 -6 87 -6 71 1 128 4 128 9 0 9 -159 7 -215 -3z"/>
<path d="M5512 980 c0 -14 2 -19 5 -12 2 6 2 18 0 25 -3 6 -5 1 -5 -13z"/>
<path d="M4923 983 c9 -2 23 -2 30 0 6 3 -1 5 -18 5 -16 0 -22 -2 -12 -5z"/>
</g>
</svg>
